<svg width="32" height="32" viewBox="0 0 32 32" fill="none" xmlns="http://www.w3.org/2000/svg">
<g clip-path="url(#clip0_496_8827)">
<path d="M26 0H6C4.41012 0.00461698 2.88668 0.638241 1.76246 1.76246C0.638241 2.88668 0.00461698 4.41012 0 6L0 26C0.00461698 27.5899 0.638241 29.1133 1.76246 30.2375C2.88668 31.3618 4.41012 31.9954 6 32H26C27.5899 31.9954 29.1133 31.3618 30.2375 30.2375C31.3618 29.1133 31.9954 27.5899 32 26V6C31.9954 4.41012 31.3618 2.88668 30.2375 1.76246C29.1133 0.638241 27.5899 0.00461698 26 0Z" fill="black"/>
<path d="M14.25 15.75C14.25 15.75 15.75 15.1925 15.75 13.25C15.75 11.3075 14.465 10.5 12.75 10.5H7V21.5H12.75C12.75 21.5 16 21.5 16 18.25C16 18.25 16 15.75 14.25 15.75ZM9.5 12.5H12.75C12.75 12.5 13.5 12.5 13.5 13.5C13.5 14.63 13 14.75 12.5 14.75H9.5V12.5ZM12.5 19.5H9.5V16.75L12.6475 16.7325C12.6475 16.7325 13.75 16.75 13.75 18.25C13.75 19.5 12.9525 19.4875 12.5 19.5ZM21.1925 13.22C17.02 13.22 17.0225 17.39 17.0225 17.39C17.0225 17.39 16.7925 21.5 21.25 21.5C21.25 21.5 25 21.8475 25 18.75H23C23 18.75 23.06 19.82 21.25 19.82C21.25 19.82 19.25 20.0175 19.25 18H25C25 18 25.585 13.22 21.1925 13.22ZM23 16.5H19.25C19.25 16.5 19.56 14.81 21.235 14.81C22.91 14.81 23 16.5 23 16.5ZM18.75 11H23.5V12.5H18.75V11Z" fill="white"/>
</g>
<defs>
<clipPath id="clip0_496_8827">
<rect width="32" height="32" fill="white"/>
</clipPath>
</defs>
</svg>
