<svg width="64" height="65" viewBox="0 0 64 65" fill="none" xmlns="http://www.w3.org/2000/svg">
<path d="M31.9999 54.1136C43.7821 54.1136 53.3332 44.5624 53.3332 32.7803C53.3332 20.9982 43.7821 11.447 31.9999 11.447C20.2178 11.447 10.6666 20.9982 10.6666 32.7803C10.6666 44.5624 20.2178 54.1136 31.9999 54.1136ZM31.9999 59.447C17.2723 59.447 5.33325 47.5078 5.33325 32.7803C5.33325 18.0527 17.2723 6.11365 31.9999 6.11365C46.7274 6.11365 58.6666 18.0527 58.6666 32.7803C58.6666 47.5078 46.7274 59.447 31.9999 59.447ZM31.9999 38.1136C29.0543 38.1136 26.6666 35.7259 26.6666 32.7803C26.6666 29.8347 29.0543 27.447 31.9999 27.447C34.9455 27.447 37.3333 29.8347 37.3333 32.7803C37.3333 35.7259 34.9455 38.1136 31.9999 38.1136Z" fill="#FAFAFA"/>
</svg>
