<svg width="64" height="64" viewBox="0 0 64 64" fill="none" xmlns="http://www.w3.org/2000/svg">
<path d="M23.9999 10.6667C26.9455 10.6667 29.3333 13.0545 29.3333 16V34.2056C26.9487 32.3662 23.9093 31.2814 20.4383 30.703L19.5615 35.9638C23.2432 36.5774 25.5931 37.7408 27.0404 39.3088C28.4532 40.8392 29.3333 43.112 29.3333 46.6667C29.3333 50.3486 26.3485 53.3334 22.6666 53.3334C18.9847 53.3334 15.9999 50.3486 15.9999 46.6667V45.7315C17.1468 46.1136 18.3368 46.4264 19.5615 46.6304L20.4383 41.3696C18.4572 41.0395 16.4671 40.3051 14.4775 39.3598C12.2174 38.2862 10.6666 35.9974 10.6666 33.3334C10.6666 31.1075 11.2202 29.356 12.1566 28.0686C13.0783 26.8011 14.5117 25.7875 16.6467 25.2537L18.6666 24.7488V16C18.6666 13.0545 21.0544 10.6667 23.9999 10.6667ZM31.9999 8.94452C30.0455 6.73007 27.1858 5.33337 23.9999 5.33337C18.1089 5.33337 13.3333 10.109 13.3333 16V20.7313C11.0638 21.6439 9.20373 23.061 7.84328 24.9316C6.11296 27.3107 5.33325 30.2259 5.33325 33.3334C5.33325 37.5072 7.45499 41.1646 10.6666 43.3126V46.6667C10.6666 53.2942 16.0392 58.6667 22.6666 58.6667C26.4363 58.6667 29.7999 56.9286 31.9999 54.2099C34.1999 56.9286 37.5636 58.6667 41.3332 58.6667C47.9607 58.6667 53.3332 53.2942 53.3332 46.6667V43.3126C56.545 41.1646 58.6666 37.5072 58.6666 33.3334C58.6666 30.2259 57.8868 27.3107 56.1565 24.9316C54.7962 23.061 52.9362 21.6439 50.6666 20.7313V16C50.6666 10.109 45.8909 5.33337 39.9999 5.33337C36.8141 5.33337 33.9543 6.73007 31.9999 8.94452ZM47.9999 45.7315V46.6667C47.9999 50.3486 45.0151 53.3334 41.3332 53.3334C37.6514 53.3334 34.6666 50.3486 34.6666 46.6667C34.6666 43.112 35.5466 40.8392 36.9594 39.3088C38.4069 37.7408 40.7567 36.5774 44.4383 35.9638L43.5615 30.703C40.0906 31.2814 37.0511 32.3662 34.6666 34.2056V16C34.6666 13.0545 37.0543 10.6667 39.9999 10.6667C42.9455 10.6667 45.3332 13.0545 45.3332 16V24.7488L47.3532 25.2537C49.4882 25.7875 50.9215 26.8011 51.8434 28.0686C52.7796 29.356 53.3332 31.1075 53.3332 33.3334C53.3332 35.9974 51.7823 38.2862 49.5223 39.3598C47.5327 40.3051 45.5426 41.0395 43.5615 41.3696L44.4383 46.6304C45.6631 46.4264 46.853 46.1136 47.9999 45.7315Z" fill="white"/>
</svg>
