<svg width="32" height="32" viewBox="0 0 32 32" fill="none" xmlns="http://www.w3.org/2000/svg">
<g clip-path="url(#clip0_496_8821)">
<path d="M24.8175 0H7.18254C3.21573 0 0 3.21573 0 7.18254V24.8175C0 28.7843 3.21573 32 7.18254 32H24.8175C28.7843 32 32 28.7843 32 24.8175V7.18254C32 3.21573 28.7843 0 24.8175 0Z" fill="#0B86CA"/>
<path d="M8.86757 13.301H12.1928V24.0304H8.86757V13.301ZM10.5634 7.96948C10.9444 7.96949 11.3169 8.08233 11.6338 8.29376C11.9507 8.5052 12.1979 8.80576 12.3442 9.15753C12.4905 9.5093 12.5293 9.89651 12.4558 10.2703C12.3823 10.6441 12.1997 10.9878 11.9311 11.258C11.6625 11.5281 11.3198 11.7127 10.9465 11.7884C10.5731 11.864 10.1856 11.8274 9.83303 11.6831C9.48043 11.5388 9.17846 11.2934 8.96521 10.9777C8.75196 10.662 8.63699 10.2902 8.6348 9.90921C8.63334 9.65501 8.68214 9.40302 8.77841 9.16775C8.87468 8.93247 9.01651 8.71855 9.19575 8.53828C9.37499 8.35802 9.58809 8.21496 9.82281 8.11734C10.0575 8.01973 10.3092 7.96948 10.5634 7.96948Z" fill="white"/>
<path d="M14.3207 13.3009H17.524V14.764C17.8446 14.2168 18.3079 13.7669 18.8642 13.4624C19.4206 13.1578 20.0492 13.0101 20.683 13.0349C24.0082 13.0349 24.6844 15.2517 24.6844 18.1447V24.0304H21.3591V18.843C21.3591 17.6016 21.3591 15.9944 19.63 15.9944C17.9008 15.9944 17.6348 17.3466 17.6348 18.7433V24.0526H14.3096L14.3207 13.3009Z" fill="white"/>
</g>
<defs>
<clipPath id="clip0_496_8821">
<rect width="32" height="32" fill="white"/>
</clipPath>
</defs>
</svg>
