<svg width="32" height="32" viewBox="0 0 32 32" fill="none" xmlns="http://www.w3.org/2000/svg">
<g clip-path="url(#clip0_496_8831)">
<path fill-rule="evenodd" clip-rule="evenodd" d="M1.38112e-05 25.0667V6.93335C-0.00180629 6.02234 0.176287 5.11994 0.524075 4.27792C0.871863 3.43591 1.3825 2.67086 2.02668 2.02668C2.67086 1.3825 3.43591 0.871863 4.27792 0.524075C5.11994 0.176287 6.02234 -0.00180629 6.93335 1.38112e-05H25.0667C25.9777 -0.00180629 26.8801 0.176287 27.7221 0.524075C28.5641 0.871863 29.3292 1.3825 29.9733 2.02668C30.6175 2.67086 31.1282 3.43591 31.476 4.27792C31.8237 5.11994 32.0018 6.02234 32 6.93335V25.0667C32.0018 25.9777 31.8237 26.8801 31.476 27.7221C31.1282 28.5641 30.6175 29.3292 29.9733 29.9733C29.3292 30.6175 28.5641 31.1282 27.7221 31.476C26.8801 31.8237 25.9777 32.0018 25.0667 32H6.93335C5.09477 31.9992 3.33174 31.2684 2.03168 29.9683C0.731608 28.6683 0.000861797 26.9053 1.38112e-05 25.0667Z" fill="url(#paint0_linear_496_8831)"/>
<path fill-rule="evenodd" clip-rule="evenodd" d="M26.3999 22.9867C26.156 23.1255 25.8805 23.199 25.5999 23.2H6.39987C6.11882 23.2026 5.84235 23.1288 5.59987 22.9867L11.9999 16.5867L13.5732 18.16C13.8942 18.4691 14.2752 18.709 14.6926 18.8649C15.1099 19.0209 15.5549 19.0895 15.9999 19.0667C16.4446 19.0871 16.8889 19.0173 17.3059 18.8615C17.7229 18.7057 18.1041 18.4671 18.4265 18.16L19.9999 16.5867L26.3999 22.9867ZM26.9599 22.4L20.5599 16L26.9599 9.60005C27.0987 9.84389 27.1722 10.1195 27.1732 10.4V21.6C27.1981 21.8835 27.1226 22.1666 26.9599 22.4ZM5.0132 22.4C4.87438 22.1562 4.80089 21.8806 4.79987 21.6V10.4C4.79736 10.119 4.87109 9.84253 5.0132 9.60005L11.4132 16L5.0132 22.4ZM26.3999 9.01338L17.8399 17.5734C17.5962 17.8076 17.3074 17.9898 16.9911 18.109C16.6748 18.2282 16.3375 18.2819 15.9999 18.2667C15.6622 18.2819 15.325 18.2282 15.0087 18.109C14.6924 17.9898 14.4036 17.8076 14.1599 17.5734L5.59987 9.01338C5.84371 8.87456 6.11928 8.80108 6.39987 8.80005H25.5999C25.8805 8.80107 26.156 8.87456 26.3999 9.01338Z" fill="white"/>
</g>
<defs>
<linearGradient id="paint0_linear_496_8831" x1="16" y1="1.38112e-05" x2="16" y2="32.0003" gradientUnits="userSpaceOnUse">
<stop stop-color="#1D6FF2"/>
<stop offset="1" stop-color="#1AC8FC"/>
</linearGradient>
<clipPath id="clip0_496_8831">
<rect width="32" height="32" fill="white"/>
</clipPath>
</defs>
</svg>
