<svg width="64" height="64" viewBox="0 0 64 64" fill="none" xmlns="http://www.w3.org/2000/svg">
<path d="M53.415 20.585L39.415 6.585C39.2291 6.39933 39.0085 6.2521 38.7657 6.15173C38.5229 6.05135 38.2627 5.99979 38 6H14C12.9391 6 11.9217 6.42143 11.1716 7.17157C10.4214 7.92172 10 8.93913 10 10V54C10 55.0609 10.4214 56.0783 11.1716 56.8284C11.9217 57.5786 12.9391 58 14 58H50C51.0609 58 52.0783 57.5786 52.8284 56.8284C53.5786 56.0783 54 55.0609 54 54V22C54.0002 21.7373 53.9487 21.4771 53.8483 21.2343C53.7479 20.9915 53.6007 20.7709 53.415 20.585ZM40 12.8275L47.1725 20H40V12.8275ZM50 54H14V10H36V22C36 22.5304 36.2107 23.0391 36.5858 23.4142C36.9609 23.7893 37.4696 24 38 24H50V54ZM38.615 41.7875C39.7953 39.9119 40.2433 37.6672 39.8732 35.4822C39.5031 33.2973 38.341 31.3253 36.6089 29.9429C34.8768 28.5606 32.6961 27.865 30.4835 27.9888C28.2709 28.1127 26.1814 29.0474 24.6144 30.6144C23.0474 32.1814 22.1127 34.2709 21.9888 36.4835C21.865 38.6961 22.5606 40.8768 23.9429 42.6089C25.3253 44.341 27.2973 45.5031 29.4822 45.8732C31.6672 46.2433 33.9119 45.7953 35.7875 44.615L38.585 47.415C38.7708 47.6008 38.9914 47.7482 39.2342 47.8488C39.477 47.9494 39.7372 48.0011 40 48.0011C40.2628 48.0011 40.523 47.9494 40.7658 47.8488C41.0086 47.7482 41.2292 47.6008 41.415 47.415C41.6008 47.2292 41.7482 47.0086 41.8488 46.7658C41.9494 46.523 42.0011 46.2628 42.0011 46C42.0011 45.7372 41.9494 45.477 41.8488 45.2342C41.7482 44.9914 41.6008 44.7708 41.415 44.585L38.615 41.7875ZM26 37C26 36.0111 26.2932 35.0444 26.8427 34.2221C27.3921 33.3999 28.173 32.759 29.0866 32.3806C30.0002 32.0022 31.0055 31.9031 31.9755 32.0961C32.9454 32.289 33.8363 32.7652 34.5355 33.4645C35.2348 34.1637 35.711 35.0546 35.9039 36.0245C36.0969 36.9945 35.9978 37.9998 35.6194 38.9134C35.241 39.827 34.6001 40.6079 33.7779 41.1573C32.9556 41.7068 31.9889 42 31 42C29.6739 42 28.4021 41.4732 27.4645 40.5355C26.5268 39.5979 26 38.3261 26 37Z" fill="white"/>
</svg>
